# Blender 3.1.2
# www.blender.org
mtllib untitled.mtl
o Cylinder
v 2.296101 -1.000000 -5.543277
v 2.296101 1.000000 -5.543277
v 3.333421 -1.000000 -4.988818
v 3.333421 1.000000 -4.988818
v 4.242640 -1.000000 -4.242640
v 4.242640 1.000000 -4.242640
v 4.988818 -1.000000 -3.333421
v 4.988818 1.000000 -3.333421
v 5.543277 -1.000000 -2.296101
v 5.543277 1.000000 -2.296101
v 5.884711 -1.000000 -1.170542
v 5.884711 1.000000 -1.170542
v 6.000000 -1.000000 0.000000
v 6.000000 1.000000 0.000000
v 5.884711 -1.000000 1.170542
v 5.884711 1.000000 1.170542
v 4.242640 -1.000000 4.242640
v 4.242640 1.000000 4.242640
v 3.333421 -1.000000 4.988818
v 3.333421 1.000000 4.988818
v 2.296101 -1.000000 5.543277
v 2.296101 1.000000 5.543277
v 1.170542 -1.000000 5.884712
v 1.170542 1.000000 5.884712
v -0.000001 -1.000000 6.000000
v -0.000001 1.000000 6.000000
v -1.170542 -1.000000 5.884712
v -1.170542 1.000000 5.884712
v -2.296101 -1.000000 5.543277
v -2.296101 1.000000 5.543277
v -3.333422 -1.000000 4.988817
v -3.333422 1.000000 4.988817
v -4.242640 -1.000000 4.242641
v -4.242640 1.000000 4.242641
v -5.884711 -1.000000 1.170542
v -5.884711 1.000000 1.170542
v -6.000000 -1.000000 -0.000000
v -6.000000 1.000000 -0.000000
v -5.884711 -1.000000 -1.170542
v -5.884711 1.000000 -1.170542
v -5.543277 -1.000000 -2.296102
v -5.543277 1.000000 -2.296102
v -4.988818 -1.000000 -3.333420
v -4.988818 1.000000 -3.333420
v -4.242641 -1.000000 -4.242640
v -4.242641 1.000000 -4.242640
v -3.333422 -1.000000 -4.988818
v -3.333422 1.000000 -4.988818
v -2.296101 -1.000000 -5.543277
v -2.296101 1.000000 -5.543277
v -1.170541 -1.000000 -5.884712
v -1.170541 1.000000 -5.884712
v 1.456931 1.000000 -5.797836
v 1.456931 -1.000000 -5.797836
v -1.043069 1.000000 -5.897267
v -1.043069 -1.000000 -5.897267
v -4.361277 1.000000 4.098082
v -4.361277 -1.000000 4.098082
v -5.755019 1.000000 1.598082
v -5.755019 -1.000000 1.598082
v 5.755019 1.000000 1.598082
v 5.755019 -1.000000 1.598082
v 4.361277 1.000000 4.098082
v 4.361277 -1.000000 4.098082
v 2.143027 -1.000000 -5.173725
v 2.143027 1.000000 -5.173725
v 3.111193 -1.000000 -4.656230
v 3.111193 1.000000 -4.656230
v 3.959798 -1.000000 -3.959798
v 3.959798 1.000000 -3.959798
v 4.656230 -1.000000 -3.111193
v 4.656230 1.000000 -3.111193
v 5.173725 -1.000000 -2.143027
v 5.173725 1.000000 -2.143027
v 5.492397 -1.000000 -1.092506
v 5.492397 1.000000 -1.092506
v 5.600000 -1.000000 0.000000
v 5.600000 1.000000 0.000000
v 5.492397 -1.000000 1.092506
v 5.492397 1.000000 1.092506
v 3.959798 -1.000000 3.959798
v 3.959798 1.000000 3.959798
v 3.111193 -1.000000 4.656230
v 3.111193 1.000000 4.656230
v 2.143028 -1.000000 5.173725
v 2.143028 1.000000 5.173725
v 1.092506 -1.000000 5.492398
v 1.092506 1.000000 5.492398
v -0.000001 -1.000000 5.600000
v -0.000001 1.000000 5.600000
v -1.092505 -1.000000 5.492398
v -1.092505 1.000000 5.492398
v -2.143027 -1.000000 5.173725
v -2.143027 1.000000 5.173725
v -3.111194 -1.000000 4.656229
v -3.111194 1.000000 4.656229
v -3.959798 -1.000000 3.959798
v -3.959798 1.000000 3.959798
v -5.492397 -1.000000 1.092506
v -5.492397 1.000000 1.092506
v -5.600000 -1.000000 -0.000000
v -5.600000 1.000000 -0.000000
v -5.492397 -1.000000 -1.092506
v -5.492397 1.000000 -1.092506
v -5.173725 -1.000000 -2.143028
v -5.173725 1.000000 -2.143028
v -4.656230 -1.000000 -3.111192
v -4.656230 1.000000 -3.111192
v -3.959799 -1.000000 -3.959797
v -3.959799 1.000000 -3.959797
v -3.111194 -1.000000 -4.656230
v -3.111194 1.000000 -4.656230
v -2.143027 -1.000000 -5.173726
v -2.143027 1.000000 -5.173726
v -1.092505 -1.000000 -5.492398
v -1.092505 1.000000 -5.492398
v 1.340817 1.000000 -5.415060
v 1.340817 -1.000000 -5.415060
v -1.003862 1.000000 -5.499193
v -1.003862 -1.000000 -5.499193
v -4.052073 1.000000 3.844325
v -4.052073 -1.000000 3.844325
v -5.372242 1.000000 1.481968
v -5.372242 -1.000000 1.481968
v 5.372242 1.000000 1.481968
v 5.372242 -1.000000 1.481968
v 4.052073 1.000000 3.844324
v 4.052073 -1.000000 3.844324
vn 0.2903 -0.0000 -0.9569
vn 0.4714 -0.0000 -0.8819
vn 0.6344 -0.0000 -0.7730
vn 0.7730 -0.0000 -0.6344
vn 0.8819 -0.0000 -0.4714
vn 0.9569 -0.0000 -0.2903
vn 0.9952 -0.0000 -0.0980
vn 0.9952 -0.0000 0.0980
vn 0.9569 -0.0000 0.2903
vn 0.7730 -0.0000 0.6344
vn 0.6344 -0.0000 0.7730
vn 0.4714 -0.0000 0.8819
vn 0.2903 -0.0000 0.9569
vn 0.0980 -0.0000 0.9952
vn -0.0980 -0.0000 0.9952
vn -0.2903 -0.0000 0.9569
vn -0.4714 -0.0000 0.8819
vn -0.6344 -0.0000 0.7730
vn -0.7730 -0.0000 0.6344
vn -0.9569 -0.0000 0.2903
vn -0.9952 -0.0000 0.0980
vn -0.9952 -0.0000 -0.0980
vn -0.9569 -0.0000 -0.2903
vn -0.8819 -0.0000 -0.4714
vn -0.7730 -0.0000 -0.6344
vn -0.6344 -0.0000 -0.7730
vn -0.4714 -0.0000 -0.8819
vn -0.2903 -0.0000 -0.9569
vn -0.0980 -0.0000 -0.9952
vn -0.2881 -0.0000 0.9576
vn -0.8819 -0.0000 0.4714
vn -0.9556 -0.0000 -0.2948
vn -0.7812 -0.0000 -0.6243
vn 0.0980 -0.0000 -0.9952
vn 0.7812 -0.0000 -0.6243
vn 0.9556 -0.0000 -0.2948
vn 0.8819 -0.0000 0.4714
vn 0.0764 -0.0000 0.9971
vn -0.0000 -1.0000 -0.0000
vn -0.0000 1.0000 -0.0000
vt 0.937500 0.000000
vt 0.937500 1.000000
vt 0.906250 0.000000
vt 0.906250 1.000000
vt 0.875000 0.000000
vt 0.875000 1.000000
vt 0.843750 0.000000
vt 0.843750 1.000000
vt 0.812500 0.000000
vt 0.812500 1.000000
vt 0.781250 0.000000
vt 0.781250 1.000000
vt 0.750000 0.000000
vt 0.750000 1.000000
vt 0.718750 0.000000
vt 0.718750 1.000000
vt 0.625000 0.000000
vt 0.625000 1.000000
vt 0.593750 0.000000
vt 0.593750 1.000000
vt 0.562500 0.000000
vt 0.562500 1.000000
vt 0.531250 0.000000
vt 0.531250 1.000000
vt 0.500000 0.000000
vt 0.500000 1.000000
vt 0.468750 0.000000
vt 0.468750 1.000000
vt 0.437500 0.000000
vt 0.437500 1.000000
vt 0.406250 0.000000
vt 0.406250 1.000000
vt 0.375000 0.000000
vt 0.375000 1.000000
vt 0.281250 0.000000
vt 0.281250 1.000000
vt 0.250000 0.000000
vt 0.250000 1.000000
vt 0.218750 0.000000
vt 0.218750 1.000000
vt 0.187500 0.000000
vt 0.187500 1.000000
vt 0.156250 0.000000
vt 0.156250 1.000000
vt 0.125000 0.000000
vt 0.125000 1.000000
vt 0.093750 0.000000
vt 0.093750 1.000000
vt 0.062500 0.000000
vt 0.062500 1.000000
vt 0.031250 0.000000
vt 0.031250 1.000000
vt 0.960799 1.000000
vt 0.960799 0.000000
vt 0.027847 1.000000
vt 0.027847 0.000000
vt 0.370031 1.000000
vt 0.370031 0.000000
vt 0.293120 1.000000
vt 0.293120 0.000000
vt 0.706880 1.000000
vt 0.706880 0.000000
vt 0.629969 1.000000
vt 0.629969 0.000000
vt 0.937500 0.000000
vt 0.937500 1.000000
vt 0.906250 0.000000
vt 0.906250 1.000000
vt 0.875000 0.000000
vt 0.875000 1.000000
vt 0.843750 0.000000
vt 0.843750 1.000000
vt 0.812500 0.000000
vt 0.812500 1.000000
vt 0.781250 0.000000
vt 0.781250 1.000000
vt 0.750000 0.000000
vt 0.750000 1.000000
vt 0.718750 0.000000
vt 0.718750 1.000000
vt 0.625000 0.000000
vt 0.625000 1.000000
vt 0.593750 0.000000
vt 0.593750 1.000000
vt 0.562500 0.000000
vt 0.562500 1.000000
vt 0.531250 0.000000
vt 0.531250 1.000000
vt 0.500000 0.000000
vt 0.500000 1.000000
vt 0.468750 0.000000
vt 0.468750 1.000000
vt 0.437500 0.000000
vt 0.437500 1.000000
vt 0.406250 0.000000
vt 0.406250 1.000000
vt 0.375000 0.000000
vt 0.375000 1.000000
vt 0.281250 0.000000
vt 0.281250 1.000000
vt 0.250000 0.000000
vt 0.250000 1.000000
vt 0.218750 0.000000
vt 0.218750 1.000000
vt 0.187500 0.000000
vt 0.187500 1.000000
vt 0.156250 0.000000
vt 0.156250 1.000000
vt 0.125000 0.000000
vt 0.125000 1.000000
vt 0.093750 0.000000
vt 0.093750 1.000000
vt 0.062500 0.000000
vt 0.062500 1.000000
vt 0.031250 0.000000
vt 0.031250 1.000000
vt 0.960799 1.000000
vt 0.960799 0.000000
vt 0.027847 1.000000
vt 0.027847 0.000000
vt 0.370031 1.000000
vt 0.370031 0.000000
vt 0.293120 1.000000
vt 0.293120 0.000000
vt 0.706880 1.000000
vt 0.706880 0.000000
vt 0.629969 1.000000
vt 0.629969 0.000000
s 0
f 53/53/1 2/2/1 1/1/1 54/54/1
f 1/1/2 2/2/2 4/4/2 3/3/2
f 3/3/3 4/4/3 6/6/3 5/5/3
f 5/5/4 6/6/4 8/8/4 7/7/4
f 7/7/5 8/8/5 10/10/5 9/9/5
f 9/9/6 10/10/6 12/12/6 11/11/6
f 11/11/7 12/12/7 14/14/7 13/13/7
f 13/13/8 14/14/8 16/16/8 15/15/8
f 62/62/9 15/15/9 16/16/9 61/61/9
f 18/18/10 17/17/10 64/64/10 63/63/10
f 17/17/11 18/18/11 20/20/11 19/19/11
f 19/19/12 20/20/12 22/22/12 21/21/12
f 21/21/13 22/22/13 24/24/13 23/23/13
f 23/23/14 24/24/14 26/26/14 25/25/14
f 25/25/15 26/26/15 28/28/15 27/27/15
f 27/27/16 28/28/16 30/30/16 29/29/16
f 29/29/17 30/30/17 32/32/17 31/31/17
f 31/31/18 32/32/18 34/34/18 33/33/18
f 33/33/19 34/34/19 57/57/19 58/58/19
f 59/59/20 36/36/20 35/35/20 60/60/20
f 35/35/21 36/36/21 38/38/21 37/37/21
f 37/37/22 38/38/22 40/40/22 39/39/22
f 39/39/23 40/40/23 42/42/23 41/41/23
f 41/41/24 42/42/24 44/44/24 43/43/24
f 43/43/25 44/44/25 46/46/25 45/45/25
f 45/45/26 46/46/26 48/48/26 47/47/26
f 47/47/27 48/48/27 50/50/27 49/49/27
f 49/49/28 50/50/28 52/52/28 51/51/28
f 51/51/29 52/52/29 55/55/29 56/56/29
f 117/117/30 118/118/30 65/65/30 66/66/30
f 65/65/17 67/67/17 68/68/17 66/66/17
f 67/67/18 69/69/18 70/70/18 68/68/18
f 69/69/19 71/71/19 72/72/19 70/70/19
f 71/71/31 73/73/31 74/74/31 72/72/31
f 73/73/20 75/75/20 76/76/20 74/74/20
f 75/75/21 77/77/21 78/78/21 76/76/21
f 77/77/22 79/79/22 80/80/22 78/78/22
f 126/126/32 125/125/32 80/80/32 79/79/32
f 82/82/33 127/127/33 128/128/33 81/81/33
f 81/81/26 83/83/26 84/84/26 82/82/26
f 83/83/27 85/85/27 86/86/27 84/84/27
f 85/85/28 87/87/28 88/88/28 86/86/28
f 87/87/29 89/89/29 90/90/29 88/88/29
f 89/89/34 91/91/34 92/92/34 90/90/34
f 91/91/1 93/93/1 94/94/1 92/92/1
f 93/93/2 95/95/2 96/96/2 94/94/2
f 95/95/3 97/97/3 98/98/3 96/96/3
f 97/97/35 122/122/35 121/121/35 98/98/35
f 123/123/36 124/124/36 99/99/36 100/100/36
f 99/99/7 101/101/7 102/102/7 100/100/7
f 101/101/8 103/103/8 104/104/8 102/102/8
f 103/103/9 105/105/9 106/106/9 104/104/9
f 105/105/37 107/107/37 108/108/37 106/106/37
f 107/107/10 109/109/10 110/110/10 108/108/10
f 109/109/11 111/111/11 112/112/11 110/110/11
f 111/111/12 113/113/12 114/114/12 112/112/12
f 113/113/13 115/115/13 116/116/13 114/114/13
f 115/115/38 120/120/38 119/119/38 116/116/38
f 1/1/39 3/3/39 67/67/39 65/65/39
f 4/4/40 2/2/40 66/66/40 68/68/40
f 3/3/39 5/5/39 69/69/39 67/67/39
f 6/6/40 4/4/40 68/68/40 70/70/40
f 5/5/39 7/7/39 71/71/39 69/69/39
f 8/8/40 6/6/40 70/70/40 72/72/40
f 7/7/39 9/9/39 73/73/39 71/71/39
f 10/10/40 8/8/40 72/72/40 74/74/40
f 9/9/39 11/11/39 75/75/39 73/73/39
f 12/12/40 10/10/40 74/74/40 76/76/40
f 11/11/39 13/13/39 77/77/39 75/75/39
f 14/14/40 12/12/40 76/76/40 78/78/40
f 13/13/39 15/15/39 79/79/39 77/77/39
f 16/16/40 14/14/40 78/78/40 80/80/40
f 17/17/39 19/19/39 83/83/39 81/81/39
f 20/20/40 18/18/40 82/82/40 84/84/40
f 19/19/39 21/21/39 85/85/39 83/83/39
f 22/22/40 20/20/40 84/84/40 86/86/40
f 21/21/39 23/23/39 87/87/39 85/85/39
f 24/24/40 22/22/40 86/86/40 88/88/40
f 23/23/39 25/25/39 89/89/39 87/87/39
f 26/26/40 24/24/40 88/88/40 90/90/40
f 25/25/39 27/27/39 91/91/39 89/89/39
f 28/28/40 26/26/40 90/90/40 92/92/40
f 27/27/39 29/29/39 93/93/39 91/91/39
f 30/30/40 28/28/40 92/92/40 94/94/40
f 29/29/39 31/31/39 95/95/39 93/93/39
f 32/32/40 30/30/40 94/94/40 96/96/40
f 34/34/40 32/32/40 96/96/40 98/98/40
f 38/38/40 36/36/40 100/100/40 102/102/40
f 60/60/39 35/35/39 99/99/39 124/124/39
f 40/40/40 38/38/40 102/102/40 104/104/40
f 39/39/39 41/41/39 105/105/39 103/103/39
f 42/42/40 40/40/40 104/104/40 106/106/40
f 41/41/39 43/43/39 107/107/39 105/105/39
f 44/44/40 42/42/40 106/106/40 108/108/40
f 43/43/39 45/45/39 109/109/39 107/107/39
f 46/46/40 44/44/40 108/108/40 110/110/40
f 45/45/39 47/47/39 111/111/39 109/109/39
f 48/48/40 46/46/40 110/110/40 112/112/40
f 47/47/39 49/49/39 113/113/39 111/111/39
f 50/50/40 48/48/40 112/112/40 114/114/40
f 49/49/39 51/51/39 115/115/39 113/113/39
f 36/36/40 59/59/40 123/123/40 100/100/40
f 2/2/40 53/53/40 117/117/40 66/66/40
f 54/54/39 1/1/39 65/65/39 118/118/39
f 55/55/40 52/52/40 116/116/40 119/119/40
f 51/51/39 56/56/39 120/120/39 115/115/39
f 57/57/40 34/34/40 98/98/40 121/121/40
f 33/33/39 58/58/39 122/122/39 97/97/39
f 59/59/13 60/60/13 124/124/13 123/123/13
f 61/61/40 16/16/40 80/80/40 125/125/40
f 15/15/39 62/62/39 126/126/39 79/79/39
f 63/63/3 64/64/3 128/128/3 127/127/3
f 62/62/16 61/61/16 125/125/16 126/126/16
f 52/52/40 50/50/40 114/114/40 116/116/40
f 31/31/39 33/33/39 97/97/39 95/95/39
f 53/53/23 54/54/23 118/118/23 117/117/23
f 64/64/39 17/17/39 81/81/39 128/128/39
f 18/18/40 63/63/40 127/127/40 82/82/40
f 56/56/7 55/55/7 119/119/7 120/120/7
f 35/35/39 37/37/39 101/101/39 99/99/39
f 58/58/26 57/57/26 121/121/26 122/122/26
f 37/37/39 39/39/39 103/103/39 101/101/39
